<svg width="400" height="300" viewBox="0 0 400 300" xmlns="http://www.w3.org/2000/svg">
  <defs>
    <!-- Shadow/glow -->
    <filter id="softGlow" x="-20%" y="-20%" width="160%" height="160%">
      <feDropShadow dx="2" dy="4" stdDeviation="5" flood-color="#f3c4f3" flood-opacity="0.4"/>
    </filter>
  </defs>

  <!-- Box 1 (bottom layer) -->
  <polygon points="60,70 220,50 240,160 80,180"
           fill="#fff0f6"
           stroke="#dba8f0"
           stroke-width="6"
           filter="url(#softGlow)"/>
  <polygon points="70,80 210,64 226,150 86,165"
           fill="#fbe4f5"
           stroke="#e2b5e9"
           stroke-width="4"/>
  <polygon points="80,90 200,78 214,140 94,155"
           fill="#fdf6ff"
           stroke="#dbb4ef"
           stroke-width="2"/>

  <!-- Box 2 (middle layer, slightly up and right) -->
  <polygon points="90,60 250,40 270,150 110,170"
           fill="#fff0f6"
           stroke="#dba8f0"
           stroke-width="6"
           filter="url(#softGlow)"/>
  <polygon points="100,70 240,54 256,140 116,155"
           fill="#fbe4f5"
           stroke="#e2b5e9"
           stroke-width="4"/>
  <polygon points="110,80 230,68 244,130 124,145"
           fill="#fdf6ff"
           stroke="#dbb4ef"
           stroke-width="2"/>

  <!-- Box 3 (top layer, slightly more up and right) -->
  <polygon points="120,50 280,30 300,140 140,160"
           fill="#fff0f6"
           stroke="#dba8f0"
           stroke-width="6"
           filter="url(#softGlow)"/>
  <polygon points="130,60 270,44 286,130 146,145"
           fill="#fbe4f5"
           stroke="#e2b5e9"
           stroke-width="4"/>
  <polygon points="140,70 260,58 274,120 154,135"
           fill="#fdf6ff"
           stroke="#dbb4ef"
           stroke-width="2"/>
</svg>
