<svg width="500" height="500" viewBox="0 0 500 500" xmlns="http://www.w3.org/2000/svg">
  <!-- Full canvas grass polygon -->
  <polygon points="0,200 500,200 500,500 0,500" fill="#7CFC00"/>

  <!-- Grass blades -->
  <path d="M80,300 Q83,290 85,300 Q87,290 90,300 Q92,290 95,300" fill="#32CD32"/>
  <path d="M200,340 Q203,330 205,340 Q207,330 210,340 Q212,330 215,340" fill="#32CD32"/>
  <path d="M360,400 Q363,390 365,400 Q367,390 370,400 Q372,390 375,400" fill="#32CD32"/>

  <!-- Flowers -->
  <circle cx="100" cy="420" r="4" fill="#FF69B4"/>
  <circle cx="120" cy="440" r="4" fill="#FFD700"/>
  <circle cx="140" cy="420" r="4" fill="#FF6347"/>

  <!-- Bushes -->
  <ellipse cx="60" cy="460" rx="15" ry="8" fill="#228B22"/>
  <ellipse cx="300" cy="460" rx="20" ry="10" fill="#2e8b57"/>
  <ellipse cx="450" cy="470" rx="18" ry="9" fill="#006400"/>
</svg>
